HIERARCHY
ROOT hip
{
	OFFSET 0.000000 0.000000 0.000000 
	CHANNELS 6 Xposition Yposition Zposition Xrotation Zrotation Yrotation
	JOINT abdomen
	{
		OFFSET 0.000000 3.402643 0.000000 
		CHANNELS 3 Xrotation Zrotation Yrotation
		JOINT chest
		{
			OFFSET 0.000000 8.438565 -0.680529 
			CHANNELS 3 Xrotation Zrotation Yrotation
			JOINT neck
			{
				OFFSET 0.000000 10.207942 -0.272212 
				CHANNELS 3 Xrotation Zrotation Yrotation
				JOINT head
				{
					OFFSET 0.000000 3.130431 0.000000 
					CHANNELS 3 Xrotation Zrotation Yrotation
					End Site
					{
						OFFSET 0.000000 3.130435 0.000000 
					}
				}
			}
			JOINT lCollar
			{
				OFFSET 3.470700 6.669187 -0.816635 
				CHANNELS 3 Yrotation Zrotation Xrotation
				JOINT lShldr
				{
					OFFSET 3.198488 0.000000 0.000000 
					CHANNELS 3 Zrotation Yrotation Xrotation
					JOINT lForeArm
					{
						OFFSET 10.139888 0.000000 0.000000 
						CHANNELS 3 Yrotation Zrotation Xrotation
						JOINT lHand
						{
							OFFSET 8.370511 0.000000 0.000000 
							CHANNELS 3 Zrotation Yrotation Xrotation
							End Site
							{
								OFFSET 4.083176 0.000000 0.000000 
							}
						}
					}
				}
			}
			JOINT rCollar
			{
				OFFSET -3.470700 6.669187 -0.816635 
				CHANNELS 3 Yrotation Zrotation Xrotation
				JOINT rShldr
				{
					OFFSET -3.198488 0.000000 0.000000 
					CHANNELS 3 Zrotation Yrotation Xrotation
					JOINT rForeArm
					{
						OFFSET -10.139888 0.000000 0.000000 
						CHANNELS 3 Yrotation Zrotation Xrotation
						JOINT rHand
						{
							OFFSET -8.370511 0.000000 0.000000 
							CHANNELS 3 Zrotation Yrotation Xrotation
							End Site
							{
								OFFSET -4.083176 0.000000 0.000000 
							}
						}
					}
				}
			}
		}
	}
	JOINT lThigh
	{
		OFFSET 5.308129 -1.633274 1.361059 
		CHANNELS 3 Xrotation Zrotation Yrotation
		JOINT lShin
		{
			OFFSET -2.041588 -20.007561 0.000000 
			CHANNELS 3 Xrotation Zrotation Yrotation
			JOINT lFoot
			{
				OFFSET 0.000000 -19.190928 -1.224953 
				CHANNELS 3 Xrotation Yrotation Zrotation
				End Site
				{
					OFFSET 0.000000 -2.449906 4.627600 
				}
			}
		}
	}
	JOINT rThigh
	{
		OFFSET -5.308129 -1.633274 1.361059 
		CHANNELS 3 Xrotation Zrotation Yrotation
		JOINT rShin
		{
			OFFSET 2.041588 -20.007561 0.000000 
			CHANNELS 3 Xrotation Zrotation Yrotation
			JOINT rFoot
			{
				OFFSET 0.000000 -19.190928 -1.224953 
				CHANNELS 3 Xrotation Yrotation Zrotation
				End Site
				{
					OFFSET 0.000000 -2.449906 4.627600 
				}
			}
		}
	}
}
MOTION
Frames: 13
Frame Time: 0.033333
-0.094537 52.663994 -0.202262 0.703125 -6.171875 104.296875 22.249544 -11.224927 -9.288809 -19.462891 11.718751 0.929717 51.063168 8.107644 2.471410 -60.419922 0.947266 -33.847500 2.000000 -2.000000 0.000000 -81.435547 25.087889 16.781485 -61.469990 -1.356816 -2.518972 27.071058 76.789261 27.105040 -2.000000 2.000000 0.000000 75.390625 -33.232418 16.796875 70.231316 0.939866 -2.582501 -60.686359 -71.039375 66.037849 -1.775883 5.842468 8.545144 14.028264 -5.145765 -1.433663 -7.867037 5.881414 -5.996487 -3.446276 -9.165436 -9.100354 18.592609 4.872511 1.738753 -7.028046 -7.761076 6.825453 
-0.118374 52.711266 -0.433102 0.351563 -6.328119 103.807503 21.887310 -11.070861 -9.197956 -19.843752 11.220704 1.464844 51.063168 8.107644 2.471410 -59.658207 1.757812 -33.974609 2.000000 -2.000000 0.000000 -80.820313 26.855469 18.314959 -61.469723 -1.356250 -2.509226 26.154274 77.123924 26.685295 -2.000000 2.000000 0.000000 73.613281 -35.566406 16.718750 70.759224 0.921499 -2.603123 -63.582512 -71.530846 68.527702 -1.611267 5.672915 8.543447 13.126855 -5.098196 -1.353945 -7.419105 6.253441 -6.034838 -4.022475 -9.204621 -9.251060 18.963234 4.862648 1.621859 -5.656147 -7.838626 6.555721 
-0.136283 52.727028 -0.638043 0.000000 -6.689453 103.505859 21.510902 -11.172718 -9.008939 -20.214846 10.898438 1.855469 51.063168 8.107644 2.471410 -59.228519 2.607422 -33.925781 2.000000 -2.000000 0.000000 -80.390625 28.642580 19.242966 -61.465412 -1.356930 -2.352732 25.192171 77.438110 26.109148 -2.000000 2.000000 0.000000 73.994141 -36.367191 16.224678 71.111069 0.912316 -2.613434 -65.197769 -71.703308 69.960655 -1.054450 5.815512 8.365102 12.774210 -5.195232 -1.314312 -7.247931 7.089065 -6.347301 -4.403788 -9.236399 -9.236886 18.953171 4.862556 1.621045 -4.994105 -7.467619 5.459381 
-0.154630 52.734898 -0.845550 -0.205078 -6.865238 103.192200 21.160978 -11.182878 -8.981508 -20.224609 10.722657 2.179551 51.063168 8.107644 2.471410 -59.179688 3.281250 -33.837891 2.000000 -2.000000 0.000000 -80.029297 29.814451 19.619141 -61.469723 -1.356250 -2.509226 26.060673 77.535622 26.808363 -2.000000 2.000000 0.000000 77.451172 -34.384766 15.712892 71.111069 0.912316 -2.613434 -65.179794 -71.702271 69.472504 -1.855253 5.349610 8.334449 12.941597 -5.117614 -1.320884 -7.203078 7.225143 -6.245158 -4.743920 -9.407402 -8.852848 19.308214 4.919914 1.173038 -4.244343 -7.477146 5.374867 
-0.198447 52.750656 -1.012322 -0.361328 -7.031250 103.037109 21.163713 -11.347081 -9.046874 -19.677734 10.859377 2.140512 51.063168 8.107644 2.471410 -59.667973 3.671875 -33.222660 2.000000 -2.000000 0.000000 -80.400391 29.628906 18.344673 -61.646038 -1.357383 -2.528717 26.038013 77.524994 26.544615 -2.000000 2.000000 0.000000 81.972656 -29.355471 15.249120 70.935013 0.911750 -2.603689 -64.001251 -72.091118 67.642441 -2.234939 5.199956 8.138350 13.301939 -5.107608 -1.350018 -6.999718 7.807082 -6.323714 -5.105793 -9.399267 -9.358084 19.501928 4.843554 1.663084 -3.910915 -7.637902 4.676446 
-0.276744 52.750656 -1.150911 -0.361328 -7.207031 103.037109 21.209930 -11.331318 -9.422368 -18.759768 11.503907 1.738281 51.063168 8.107644 2.471410 -60.742191 3.759766 -32.236332 2.000000 -2.000000 0.000000 -81.132813 28.496092 16.215597 -61.821831 -1.347633 -2.529284 25.267281 77.559013 24.889410 -2.000000 2.000000 0.000000 83.242188 -25.429686 15.712892 70.758957 0.911184 -2.593943 -63.098423 -72.237938 66.653946 -2.606421 5.035934 7.952545 13.652948 -5.146710 -1.392993 -6.823120 8.086975 -6.141993 -5.349103 -9.690386 -9.330791 19.663809 4.862064 1.825480 -3.743766 -7.726777 4.213295 
-0.376668 52.758541 -1.328233 -0.361328 -7.207031 103.378906 21.226171 -11.239692 -9.583935 -18.007813 11.806641 1.425782 51.063168 8.107644 2.471410 -61.611332 3.632812 -31.542971 2.000000 -2.000000 0.000000 -81.767578 27.402344 14.613870 -62.004227 -1.477889 -2.414145 26.015551 77.079872 25.455303 -2.000000 2.000000 0.000000 81.376953 -26.083984 16.855465 70.935020 0.902001 -2.604254 -63.089516 -72.237427 66.654015 -2.803020 4.707160 7.795093 14.204935 -5.146106 -1.448411 -6.786683 8.032655 -5.975842 -5.370786 -10.056874 -9.151889 19.663502 4.842658 1.666856 -3.421153 -7.921199 4.160635 
-0.541741 52.766415 -1.559893 -0.205078 -7.382816 103.719452 21.430481 -11.312322 -9.808907 -18.007813 11.806641 1.250000 51.063168 8.107644 2.471410 -62.148438 3.847656 -31.484379 2.000000 -2.000000 0.000000 -81.484375 26.552734 14.326172 -61.997612 -1.347633 -2.529284 24.410604 77.018898 23.247477 -2.000000 2.000000 0.000000 78.007813 -29.619143 18.154297 71.110802 0.902001 -2.604254 -63.636101 -72.308586 67.190659 -2.984304 4.357920 7.609223 14.188417 -5.134050 -1.445478 -6.450476 8.289212 -5.450281 -5.584860 -10.445549 -8.790877 20.010889 4.890464 1.207219 -3.267862 -8.399548 4.331544 
-0.746924 52.766415 -1.795077 0.000000 -7.382812 104.033203 21.609814 -11.062270 -9.917795 -18.222658 11.474610 1.132813 51.063168 8.107644 2.471410 -62.460938 4.218750 -31.386721 2.000000 -2.000000 0.000000 -81.367188 25.908199 14.326173 -61.992771 -1.347181 -2.353299 23.851889 76.873749 22.526529 -2.000000 2.000000 0.000000 75.185547 -31.933598 19.057337 71.286591 0.902001 -2.604254 -64.291031 -72.266838 67.567673 -3.296928 3.997842 7.751817 14.364309 -5.136698 -1.450730 -6.518434 8.103879 -5.347305 -5.829132 -11.022506 -9.128893 20.190866 4.822934 1.707050 -3.256240 -8.631554 4.394664 
-0.905583 52.766415 -2.052043 -0.205078 -7.568364 104.237000 21.784317 -11.049767 -9.923524 -18.398438 11.318360 0.888672 51.063168 8.107644 2.471410 -62.812504 4.238281 -31.591797 2.000000 -2.000000 0.000000 -81.103516 25.927736 14.433594 -62.180546 -1.479023 -2.433636 24.737036 76.408218 23.902018 -2.000000 2.000000 0.000000 74.306641 -32.460941 19.169924 70.759224 0.921499 -2.603123 -63.840828 -72.568947 67.138176 -3.609285 3.500821 7.587370 14.893100 -5.283874 -1.541435 -6.375755 8.072305 -4.963242 -6.072142 -11.282928 -9.085848 20.368536 4.813661 1.875601 -2.568498 -8.685238 4.668049 
-1.066499 52.766415 -2.318668 -0.205078 -7.734374 104.238281 21.765348 -10.973710 -9.707715 -18.779297 10.986328 0.929596 51.063168 8.107644 2.471410 -63.154301 4.433593 -32.187500 2.000000 -2.000000 0.000000 -81.416016 26.113281 14.433594 -62.180546 -1.479023 -2.433636 24.493927 76.233368 23.413240 -2.000000 2.000000 0.000000 73.662109 -32.255863 19.257814 70.055260 0.949049 -2.572190 -64.398697 -73.039085 67.304863 -3.963715 3.504547 7.404682 15.260737 -5.451782 -1.572010 -6.792939 8.532406 -5.000263 -6.532948 -11.561082 -9.064522 20.541143 4.803319 1.898068 -2.394292 -8.656766 4.521553 
-1.218054 52.742779 -2.600931 -0.537109 -7.929699 103.934227 21.933571 -11.058553 -9.564384 -19.140625 10.830078 1.015625 51.063168 8.107644 2.471410 -63.330082 4.443358 -32.900391 2.000000 -2.000000 0.000000 -81.933594 26.894529 14.169921 -62.180546 -1.479023 -2.433636 23.445311 75.946342 22.030294 -2.000000 2.000000 0.000000 73.828125 -32.705082 18.398439 69.882011 1.120445 -2.660031 -64.286224 -73.122177 66.975716 -4.104839 3.323156 7.423513 15.424801 -5.614411 -1.508057 -6.803168 8.831254 -4.833006 -6.813662 -11.848126 -8.653472 20.554882 4.882425 1.269790 -1.884451 -8.362367 4.387155 
-1.371286 52.727028 -2.888494 -0.722656 -8.095703 103.798828 21.894674 -10.982574 -9.350413 -19.335938 10.498048 1.083984 51.063168 8.107644 2.471410 -63.681644 4.472656 -33.447269 2.000000 -2.000000 0.000000 -82.167969 27.578125 14.047490 -62.180561 -1.469274 -2.434203 23.445311 75.946342 22.030294 -2.000000 2.000000 0.000000 73.554688 -33.710938 18.168409 70.055260 0.949049 -2.572190 -63.358223 -72.869392 66.044968 -4.247435 3.153748 7.571355 15.432133 -5.372474 -1.607206 -7.001261 9.158539 -5.219563 -7.302669 -11.987222 -9.147010 20.904238 4.793908 1.926129 -1.364566 -7.967531 3.647925 
